<?xml version="1.0" standalone="no"?>
<!DOCTYPE svg PUBLIC "-//W3C//DTD SVG 20010904//EN"
 "http://www.w3.org/TR/2001/REC-SVG-20010904/DTD/svg10.dtd">
<svg version="1.0" xmlns="http://www.w3.org/2000/svg"
 width="262.000000pt" height="262.000000pt" viewBox="0 0 262.000000 262.000000"
 preserveAspectRatio="xMidYMid meet">

<g transform="translate(0.000000,262.000000) scale(0.100000,-0.100000)" stroke="none">
<path fill="currentColor" d="M184 1825 c-44 -6 -89 -17 -98 -22 -16 -9 -14 -12 17 -32 142 -88
256 -338 259 -568 l1 -98 106 0 c95 0 112 -3 163 -28 70 -34 134 -95 159 -152
l19 -42 72 -5 c157 -10 279 -107 359 -283 34 -76 69 -196 70 -245 l1 -35 10
40 c5 22 16 69 24 105 26 111 88 226 163 301 83 82 142 111 242 117 l75 4 24
49 c28 61 85 113 159 148 49 23 69 26 159 26 l102 0 0 70 c0 176 65 378 158
495 48 59 50 61 99 96 l41 31 -31 11 c-18 6 -73 16 -124 22 -100 13 -236 2
-343 -27 -30 -9 -67 -18 -83 -20 -15 -3 -30 -9 -33 -14 -3 -5 -13 -9 -22 -9
-16 0 -161 -70 -209 -101 -19 -11 -23 -23 -23 -64 0 -68 -14 -115 -53 -171
-38 -56 -104 -95 -157 -91 -32 2 -35 5 -41 42 -5 26 -2 49 7 67 8 15 14 38 14
51 0 33 -20 87 -32 87 -14 0 -68 -60 -68 -75 0 -10 -14 -13 -51 -12 -47 2 -53
5 -78 42 -15 22 -33 40 -41 40 -9 0 -21 -19 -30 -42 -13 -38 -12 -46 3 -78 12
-25 15 -48 10 -80 -5 -43 -7 -45 -38 -45 -111 0 -206 112 -210 250 l-2 65 -53
32 c-121 73 -304 133 -470 153 -102 12 -122 12 -226 -5z m1186 -451 c0 -8 -5
-12 -10 -9 -6 4 -8 11 -5 16 9 14 15 11 15 -7z m-90 2 c0 -3 -4 -8 -10 -11 -5
-3 -10 -1 -10 4 0 6 5 11 10 11 6 0 10 -2 10 -4z m-4 -94 c6 -4 8 -16 4 -27
-7 -19 -7 -19 -18 2 -18 33 -12 43 14 25z m100 -8 c-3 -9 -6 -20 -6 -25 0 -5
-4 -9 -10 -9 -11 0 -14 33 -3 43 12 13 25 7 19 -9z"/>
</g>
</svg>
